<svg
  xmlns="http://www.w3.org/2000/svg"
  width="40"
  height="40"
  fill="red">
    <g transform="translate(-6.3000000,19.500000) scale(0.032,-0.032)" stroke="none">
      <circle cx="800" cy="0" r="600" stroke="none" fill="#020724"/>
      <path fill="#60d4ff" class="path__logo" style="stroke: none;" d="m898 408 l32 -5 0 -125 c0 -115 -1 -125 -17 -118 -35 14 -140 17 -176 6 -51 -17 -122 -84 -141 -133 -22 -54 -13 -109 25 -153 41 -46 76 -58 158 -53 82 4 135 35 186 107 l30 43 5 198 5 198 74 -49 c79 -52 179 -89 241 -89 46 0 59 -24 36 -68 -18 -34 -76 -87 -105 -97 -18 -5 -21 -14 -21 -69 0 -163 -92 -306 -243 -377 -119 -55 -240 -58 -370 -9 -75 28 -173 118 -215 197 -128 240 13 529 291 599 49 12 125 11 205 -3z" ></path>
    </g>
</svg>